<svg width="21" height="16" viewBox="0 0 21 16" fill="none" xmlns="http://www.w3.org/2000/svg">
<path d="M1 7C0.447715 7 -2.41411e-08 7.44772 0 8C2.41411e-08 8.55228 0.447715 9 1 9L1 7ZM20.196 8.70711C20.5865 8.31658 20.5865 7.68342 20.196 7.29289L13.832 0.928932C13.4415 0.538407 12.8083 0.538407 12.4178 0.928932C12.0273 1.31946 12.0273 1.95262 12.4178 2.34315L18.0747 8L12.4178 13.6569C12.0273 14.0474 12.0273 14.6805 12.4178 15.0711C12.8083 15.4616 13.4415 15.4616 13.832 15.0711L20.196 8.70711ZM1 9L19.4889 9L19.4889 7L1 7L1 9Z" fill="#103783"/>
</svg>
