<svg width="20" height="16" viewBox="0 0 20 16" fill="none" xmlns="http://www.w3.org/2000/svg">
<path d="M19 9C19.5523 9 20 8.55228 20 8C20 7.44772 19.5523 7 19 7L19 9ZM0.292893 7.29289C-0.097631 7.68342 -0.0976311 8.31658 0.292893 8.70711L6.65685 15.0711C7.04738 15.4616 7.68054 15.4616 8.07107 15.0711C8.46159 14.6805 8.46159 14.0474 8.07107 13.6569L2.41421 8L8.07107 2.34314C8.46159 1.95262 8.46159 1.31946 8.07107 0.928931C7.68054 0.538407 7.04738 0.538407 6.65685 0.928931L0.292893 7.29289ZM19 7L1 7L1 9L19 9L19 7Z" fill="white"/>
</svg>
