<svg width="300" height="413" viewBox="0 0 300 413" fill="none" xmlns="http://www.w3.org/2000/svg">
<rect width="300" height="412.5" rx="10" fill="#EEF5FF"/>
<rect x="25.25" y="30.25" width="42" height="42" rx="8" fill="#FF0A2B"/>
<path d="M46.25 48.25C48.7353 48.25 50.75 46.2353 50.75 43.75C50.75 41.2647 48.7353 39.25 46.25 39.25C43.7647 39.25 41.75 41.2647 41.75 43.75C41.75 46.2353 43.7647 48.25 46.25 48.25Z" fill="white" stroke="white" stroke-width="1.5"/>
<path d="M34.25 60.25C34.25 58.6587 34.8821 57.1326 36.0074 56.0074C37.1326 54.8821 38.6587 54.25 40.25 54.25H52.25C53.8413 54.25 55.3674 54.8821 56.4926 56.0074C57.6179 57.1326 58.25 58.6587 58.25 60.25C58.25 61.0456 57.9339 61.8087 57.3713 62.3713C56.8087 62.9339 56.0456 63.25 55.25 63.25H37.25C36.4544 63.25 35.6913 62.9339 35.1287 62.3713C34.5661 61.8087 34.25 61.0456 34.25 60.25Z" fill="white" stroke="white" stroke-width="1.5" stroke-linejoin="round"/>
<rect x="85" y="25" width="62.5" height="12.5" rx="3" fill="#FF0A2B"/>
<path d="M85 55.75C85 54.6454 85.8954 53.75 87 53.75L225.5 53.75C226.605 53.75 227.5 54.6454 227.5 55.75V61.75C227.5 62.8546 226.605 63.75 225.5 63.75L87 63.75C85.8954 63.75 85 62.8546 85 61.75V55.75Z" fill="#CACACA"/>
<path d="M85 69.5C85 68.3954 85.8954 67.5 87 67.5L225.5 67.5C226.605 67.5 227.5 68.3954 227.5 69.5V75.5C227.5 76.6046 226.605 77.5 225.5 77.5H87C85.8954 77.5 85 76.6046 85 75.5V69.5Z" fill="#CACACA"/>
<circle cx="263.75" cy="61.25" r="14.75" stroke="#CACACA" stroke-width="3"/>
<rect x="25.25" y="107.75" width="42" height="42" rx="8" fill="#00D76F"/>
<path d="M46.25 125.75C48.7353 125.75 50.75 123.735 50.75 121.25C50.75 118.765 48.7353 116.75 46.25 116.75C43.7647 116.75 41.75 118.765 41.75 121.25C41.75 123.735 43.7647 125.75 46.25 125.75Z" fill="white" stroke="white" stroke-width="1.5"/>
<path d="M34.25 137.75C34.25 136.159 34.8821 134.633 36.0074 133.507C37.1326 132.382 38.6587 131.75 40.25 131.75H52.25C53.8413 131.75 55.3674 132.382 56.4926 133.507C57.6179 134.633 58.25 136.159 58.25 137.75C58.25 138.546 57.9339 139.309 57.3713 139.871C56.8087 140.434 56.0456 140.75 55.25 140.75H37.25C36.4544 140.75 35.6913 140.434 35.1287 139.871C34.5661 139.309 34.25 138.546 34.25 137.75Z" fill="white" stroke="white" stroke-width="1.5" stroke-linejoin="round"/>
<rect x="85" y="102.5" width="62.5" height="12.5" rx="3" fill="#00D76F"/>
<path d="M85 133.25C85 132.145 85.8954 131.25 87 131.25H225.5C226.605 131.25 227.5 132.145 227.5 133.25V139.25C227.5 140.355 226.605 141.25 225.5 141.25H87C85.8954 141.25 85 140.355 85 139.25V133.25Z" fill="#CACACA"/>
<path d="M85 147C85 145.895 85.8954 145 87 145H225.5C226.605 145 227.5 145.895 227.5 147V153C227.5 154.105 226.605 155 225.5 155H87C85.8954 155 85 154.105 85 153V147Z" fill="#CACACA"/>
<circle cx="263.75" cy="138.75" r="14.75" stroke="#CACACA" stroke-width="3"/>
<rect x="25.25" y="185.25" width="42" height="42" rx="8" fill="#FEC200"/>
<path d="M46.25 203.25C48.7353 203.25 50.75 201.235 50.75 198.75C50.75 196.265 48.7353 194.25 46.25 194.25C43.7647 194.25 41.75 196.265 41.75 198.75C41.75 201.235 43.7647 203.25 46.25 203.25Z" fill="white" stroke="white" stroke-width="1.5"/>
<path d="M34.25 215.25C34.25 213.659 34.8821 212.133 36.0074 211.007C37.1326 209.882 38.6587 209.25 40.25 209.25H52.25C53.8413 209.25 55.3674 209.882 56.4926 211.007C57.6179 212.133 58.25 213.659 58.25 215.25C58.25 216.046 57.9339 216.809 57.3713 217.371C56.8087 217.934 56.0456 218.25 55.25 218.25H37.25C36.4544 218.25 35.6913 217.934 35.1287 217.371C34.5661 216.809 34.25 216.046 34.25 215.25Z" fill="white" stroke="white" stroke-width="1.5" stroke-linejoin="round"/>
<rect x="85" y="180" width="62.5" height="12.5" rx="3" fill="#FEC200"/>
<path d="M85 210.75C85 209.645 85.8954 208.75 87 208.75H225.5C226.605 208.75 227.5 209.645 227.5 210.75V216.75C227.5 217.855 226.605 218.75 225.5 218.75H87C85.8954 218.75 85 217.855 85 216.75V210.75Z" fill="#CACACA"/>
<path d="M85 224.5C85 223.395 85.8954 222.5 87 222.5H225.5C226.605 222.5 227.5 223.395 227.5 224.5V230.5C227.5 231.605 226.605 232.5 225.5 232.5H87C85.8954 232.5 85 231.605 85 230.5V224.5Z" fill="#CACACA"/>
<circle cx="263.75" cy="216.25" r="14.75" stroke="#CACACA" stroke-width="3"/>
<rect x="25.25" y="262.75" width="42" height="42" rx="8" fill="#0096EB"/>
<path d="M46.25 280.75C48.7353 280.75 50.75 278.735 50.75 276.25C50.75 273.765 48.7353 271.75 46.25 271.75C43.7647 271.75 41.75 273.765 41.75 276.25C41.75 278.735 43.7647 280.75 46.25 280.75Z" fill="white" stroke="white" stroke-width="1.5"/>
<path d="M34.25 292.75C34.25 291.159 34.8821 289.633 36.0074 288.507C37.1326 287.382 38.6587 286.75 40.25 286.75H52.25C53.8413 286.75 55.3674 287.382 56.4926 288.507C57.6179 289.633 58.25 291.159 58.25 292.75C58.25 293.546 57.9339 294.309 57.3713 294.871C56.8087 295.434 56.0456 295.75 55.25 295.75H37.25C36.4544 295.75 35.6913 295.434 35.1287 294.871C34.5661 294.309 34.25 293.546 34.25 292.75Z" fill="white" stroke="white" stroke-width="1.5" stroke-linejoin="round"/>
<rect x="85" y="257.5" width="62.5" height="12.5" rx="3" fill="#0096EB"/>
<path d="M85 288.25C85 287.145 85.8954 286.25 87 286.25H225.5C226.605 286.25 227.5 287.145 227.5 288.25V294.25C227.5 295.355 226.605 296.25 225.5 296.25H87C85.8954 296.25 85 295.355 85 294.25V288.25Z" fill="#CACACA"/>
<path d="M85 302C85 300.895 85.8954 300 87 300H225.5C226.605 300 227.5 300.895 227.5 302V308C227.5 309.105 226.605 310 225.5 310H87C85.8954 310 85 309.105 85 308V302Z" fill="#CACACA"/>
<circle cx="263.75" cy="293.75" r="14.75" stroke="#CACACA" stroke-width="3"/>
<rect x="25.25" y="340.25" width="42" height="42" rx="8" fill="#FF710A"/>
<path d="M46.25 358.25C48.7353 358.25 50.75 356.235 50.75 353.75C50.75 351.265 48.7353 349.25 46.25 349.25C43.7647 349.25 41.75 351.265 41.75 353.75C41.75 356.235 43.7647 358.25 46.25 358.25Z" fill="white" stroke="white" stroke-width="1.5"/>
<path d="M34.25 370.25C34.25 368.659 34.8821 367.133 36.0074 366.007C37.1326 364.882 38.6587 364.25 40.25 364.25H52.25C53.8413 364.25 55.3674 364.882 56.4926 366.007C57.6179 367.133 58.25 368.659 58.25 370.25C58.25 371.046 57.9339 371.809 57.3713 372.371C56.8087 372.934 56.0456 373.25 55.25 373.25H37.25C36.4544 373.25 35.6913 372.934 35.1287 372.371C34.5661 371.809 34.25 371.046 34.25 370.25Z" fill="white" stroke="white" stroke-width="1.5" stroke-linejoin="round"/>
<rect x="85" y="335" width="62.5" height="12.5" rx="3" fill="#FF710A"/>
<path d="M85 365.75C85 364.645 85.8954 363.75 87 363.75H225.5C226.605 363.75 227.5 364.645 227.5 365.75V371.75C227.5 372.855 226.605 373.75 225.5 373.75H87C85.8954 373.75 85 372.855 85 371.75V365.75Z" fill="#CACACA"/>
<path d="M85 379.5C85 378.395 85.8954 377.5 87 377.5H225.5C226.605 377.5 227.5 378.395 227.5 379.5V385.5C227.5 386.605 226.605 387.5 225.5 387.5H87C85.8954 387.5 85 386.605 85 385.5V379.5Z" fill="#CACACA"/>
<circle cx="263.75" cy="371.25" r="14.75" stroke="#CACACA" stroke-width="3"/>
<path d="M256.25 136.528C261.95 141.824 263.969 143.75 263.969 143.75C271.094 136.528 277.625 129.907 280 127.5" stroke="#00D76F" stroke-width="3.5" stroke-linecap="round" stroke-linejoin="round"/>
</svg>
